<svg width="17" height="15" viewBox="0 0 17 15" fill="none" xmlns="http://www.w3.org/2000/svg">
<path d="M8.03653 0.681559C8.11422 0.457383 8.43127 0.457382 8.50896 0.681559L10.1739 5.48537C10.2087 5.58601 10.3036 5.6535 10.4101 5.6535H15.7618C16.0078 5.6535 16.1059 5.9716 15.9025 6.11012L11.6012 9.03984C11.5079 9.10341 11.4688 9.22164 11.5058 9.32833L13.1551 14.0873C13.234 14.3148 12.9772 14.5114 12.7782 14.3758L8.41348 11.4029C8.32857 11.345 8.21692 11.345 8.13201 11.4029L3.7673 14.3758C3.56829 14.5114 3.3115 14.3148 3.39035 14.0873L5.03972 9.32833C5.0767 9.22164 5.03757 9.10341 4.94424 9.03984L0.643001 6.11012C0.439627 5.9716 0.537669 5.6535 0.783738 5.6535H6.13541C6.24192 5.6535 6.33674 5.58601 6.37162 5.48537L8.03653 0.681559Z" fill="#FBB040"/>
</svg>
